<svg width="0" height="0" class="hidden">
  <symbol fill="none"
    xmlns="http://www.w3.org/2000/svg" viewBox="0 0 40 40" id="icon-logo">
    <path d="M0 20C0 8.954 8.954 0 20 0h20v20c0 11.046-8.954 20-20 20S0 31.046 0 20z" fill="#8643DC"></path>
    <path d="M16 10c0-5.523 4.477-10 10-10h14v13c0 5.523-4.477 10-10 10H16V10z" fill="#FF59C1"></path>
    <path d="M25.32 25.5h-9.75L13.71 30H8.73l9.36-21h4.8l9.39 21h-5.1l-1.86-4.5zm-1.53-3.69l-3.33-8.04-3.33 8.04h6.66z" fill="#fff"></path>
  </symbol>
</svg>
